<svg xmlns="http://www.w3.org/2000/svg" version="1.1" xmlns:xlink="http://www.w3.org/1999/xlink" width="512" height="512" x="0" y="0" viewBox="0 0 64 64" style="enable-background:new 0 0 512 512" xml:space="preserve" class=""><g><path d="m59.019 34.354-3.87-2.368 3.864-2.337a2.023 2.023 0 0 0-1.032-3.76h-.955l.66-1.597a3.882 3.882 0 0 0-2.102-5.057l-6.965-2.881a1.866 1.866 0 0 1-1.015-1.008l-2.89-6.963a3.881 3.881 0 0 0-5.068-2.088l-6.959 2.89a1.843 1.843 0 0 1-1.436 0l-6.959-2.87a3.88 3.88 0 0 0-5.057 2.102l-2.881 6.964a1.87 1.87 0 0 1-1.008 1.015l-6.963 2.89a3.902 3.902 0 0 0-2.088 5.067l.637 1.537h-.913a2.023 2.023 0 0 0-1.038 3.756l3.87 2.368-3.864 2.337a2.023 2.023 0 0 0 1.032 3.76h.955l-.66 1.597a3.882 3.882 0 0 0 2.102 5.057l6.965 2.881a1.866 1.866 0 0 1 1.015 1.008l2.89 6.963a3.886 3.886 0 0 0 5.068 2.088l6.959-2.89a1.851 1.851 0 0 1 1.436 0l6.959 2.87a3.88 3.88 0 0 0 5.057-2.102l2.882-6.964a1.87 1.87 0 0 1 1.007-1.015l6.963-2.89a3.902 3.902 0 0 0 2.088-5.067l-.637-1.537h.913a2.03 2.03 0 0 0 1.038-3.756zM8.142 23.584a1.893 1.893 0 0 1 1.01-2.451l6.96-2.89a3.878 3.878 0 0 0 2.091-2.101l2.882-6.965a1.87 1.87 0 0 1 2.443-1.014l6.953 2.867a3.824 3.824 0 0 0 2.973.002l6.962-2.89a1.876 1.876 0 0 1 2.451 1.01l2.89 6.96a3.879 3.879 0 0 0 2.101 2.091l6.965 2.882a1.872 1.872 0 0 1 1.015 2.443l-.975 2.362h-2.438a3.257 3.257 0 0 0-1.803-4.125l-5.476-2.258a1.28 1.28 0 0 1-.681-.68l-2.272-5.473a3.27 3.27 0 0 0-4.265-1.759l-5.474 2.272a1.252 1.252 0 0 1-.962.008l-5.468-2.259a3.264 3.264 0 0 0-4.26 1.762l-2.257 5.475a1.278 1.278 0 0 1-.682.683l-5.47 2.27a3.26 3.26 0 0 0-1.815 4.084H9.097zm34.752 2.306a12.522 12.522 0 0 0-21.788 0h-7.42l-.245-.585a1.266 1.266 0 0 1 .682-1.652l5.472-2.27a3.303 3.303 0 0 0 1.76-1.762l2.257-5.476a1.258 1.258 0 0 1 1.646-.682l5.472 2.261a3.238 3.238 0 0 0 2.493-.011l5.473-2.271a1.264 1.264 0 0 1 1.65.68l2.272 5.473a3.296 3.296 0 0 0 1.762 1.759l5.475 2.258a1.264 1.264 0 0 1 .682 1.644l-.263.634zm7.42 12.22.245.585a1.266 1.266 0 0 1-.682 1.652l-5.472 2.27a3.303 3.303 0 0 0-1.76 1.762l-2.257 5.476a1.26 1.26 0 0 1-1.646.682l-5.472-2.261a3.23 3.23 0 0 0-2.493.011l-5.473 2.271a1.264 1.264 0 0 1-1.65-.68l-2.272-5.473a3.296 3.296 0 0 0-1.762-1.759l-5.475-2.258a1.264 1.264 0 0 1-.682-1.644l.263-.634h7.38a12.522 12.522 0 0 0 21.788 0zM32 42.5A10.513 10.513 0 0 1 21.499 32c.577-13.93 20.427-13.926 21.002 0A10.513 10.513 0 0 1 32 42.5zM6.017 36.066l3.86-2.335a2.012 2.012 0 0 0 .01-3.457L6.019 27.89h14.189a12.394 12.394 0 0 0 0 8.22c-3.97-.02-10.267.046-14.191-.044zm49.841 4.35a1.893 1.893 0 0 1-1.01 2.451l-6.96 2.89a3.878 3.878 0 0 0-2.091 2.101l-2.882 6.965a1.87 1.87 0 0 1-2.443 1.014l-6.953-2.867a3.824 3.824 0 0 0-2.973-.002l-6.962 2.89a1.876 1.876 0 0 1-2.451-1.01l-2.89-6.96a3.879 3.879 0 0 0-2.101-2.091l-6.965-2.882a1.872 1.872 0 0 1-1.015-2.443l.975-2.362h2.438a3.257 3.257 0 0 0 1.803 4.125l5.476 2.258a1.28 1.28 0 0 1 .681.68l2.272 5.473a3.273 3.273 0 0 0 3.017 2.01c.852.153 5.855-2.25 6.722-2.523a1.247 1.247 0 0 1 .962-.008l5.468 2.259a3.264 3.264 0 0 0 4.26-1.762l2.257-5.475a1.278 1.278 0 0 1 .682-.683l5.47-2.27a3.26 3.26 0 0 0 1.815-4.084h2.443zM43.792 36.11a12.394 12.394 0 0 0 0-8.22h7.147c1.591.002 5.498-.01 7.044.044l-3.86 2.335a2.012 2.012 0 0 0-.01 3.457l3.868 2.384z" fill="#63c153" opacity="1" data-original="#000000" class=""></path><path d="m37.043 28.145-5.665 5.665a1.183 1.183 0 0 1-1.634 0l-2.787-2.787a1 1 0 0 0-1.414 1.414l2.787 2.787a3.153 3.153 0 0 0 4.462 0l5.665-5.665a1 1 0 0 0-1.414-1.414z" fill="#63c153" opacity="1" data-original="#000000" class=""></path></g></svg>