<svg xmlns="http://www.w3.org/2000/svg" version="1.1" xmlns:xlink="http://www.w3.org/1999/xlink" width="512" height="512" x="0" y="0" viewBox="0 0 512 512" style="enable-background:new 0 0 512 512" xml:space="preserve" class=""><g><path d="M462.15 182.68c8.8-9.6 14.17-22.37 14.17-36.38 0-29.73-24.21-53.92-53.98-53.92s-53.98 24.19-53.98 53.92c0 25.57 17.91 47.02 41.85 52.53l-.74.74-54.17 54.13h-63.36c-14.57 0-26.42 11.84-26.42 26.4 0 3.69.76 7.2 2.14 10.4H244.3c1.37-3.19 2.14-6.71 2.14-10.4 0-14.55-11.85-26.4-26.42-26.4h-63.36l-54.17-54.13-.73-.73c23.96-5.51 41.88-26.96 41.88-52.53 0-29.73-24.23-53.92-54.01-53.92-29.76 0-53.98 24.19-53.98 53.92 0 14.01 5.38 26.78 14.17 36.38-13.49 5.32-23.06 18.47-23.06 33.81v146.55c0 16.27 13.25 29.51 29.54 29.51h71.92v89.94c0 16.27 13.25 29.51 29.54 29.51s29.54-13.24 29.54-29.51V363.04c0-4.87-1.19-9.46-3.29-13.51H248V471.6h-13.48c-11.16 0-20.23 9.06-20.23 20.19V504c0 4.42 3.58 8 8 8h67.44c4.42 0 8-3.58 8-8v-12.22c0-11.13-9.08-20.19-20.23-20.19H264V349.52h63.95c-2.1 4.05-3.29 8.65-3.29 13.51v119.45c0 16.27 13.25 29.51 29.54 29.51s29.54-13.24 29.54-29.51v-89.94h71.92c16.29 0 29.54-13.24 29.54-29.51V216.49c.01-15.35-9.56-28.49-23.05-33.81zm-180.43 309.1V496h-51.44v-4.22c0-2.31 1.9-4.19 4.23-4.19h42.97c2.34 0 4.24 1.88 4.24 4.19zM384.37 146.3c0-20.91 17.04-37.92 37.98-37.92s37.98 17.01 37.98 37.92-17.04 37.92-37.98 37.92-37.98-17.01-37.98-37.92zM281.54 280.09c0-5.73 4.67-10.4 10.42-10.4h66.67c2.12 0 4.15-.84 5.65-2.34l56.52-56.47c7.58-7.58 14.74-14.74 28.03-14.74 11.24 0 20.38 9.13 20.38 20.35v117.04h-53.48V268l18.91-18.89a7.994 7.994 0 0 0 .01-11.31 7.994 7.994 0 0 0-11.31-.01l-49.01 48.95c-2.55 2.57-5.45 3.76-9.11 3.76h-73.25c-5.76-.01-10.43-4.67-10.43-10.41zm91.67 53.43V305.4c4.66-1.31 8.88-3.8 12.44-7.37l14.08-14.06v49.55zm-260.94 0v-49.55l14.06 14.04c3.57 3.59 7.79 6.08 12.46 7.39v28.12zm42.52-27.03h202.43v27.03H154.79zM89.65 108.38c20.96 0 38.01 17.01 38.01 37.92s-17.05 37.92-38.01 37.92c-20.94 0-37.98-17.01-37.98-37.92s17.04-37.92 37.98-37.92zm-26.48 87.76c13.28 0 20.44 7.16 28.02 14.74l56.52 56.48c1.5 1.5 3.53 2.34 5.65 2.34h66.67c5.75 0 10.42 4.66 10.42 10.4 0 5.73-4.67 10.4-10.42 10.4h-73.25c-3.67 0-6.56-1.2-9.13-3.78l-48.99-48.93c-3.12-3.12-8.19-3.12-11.31.01s-3.12 8.19.01 11.31L96.27 268v65.53H42.79V216.49c0-11.22 9.14-20.35 20.38-20.35zm108.17 166.9v119.45c0 7.45-6.08 13.51-13.54 13.51s-13.54-6.06-13.54-13.51v-97.94c0-4.42-3.58-8-8-8H56.33c-7.47 0-13.54-6.06-13.54-13.51v-13.51H157.8c7.47-.01 13.54 6.05 13.54 13.51zm297.87 0c0 7.45-6.08 13.51-13.54 13.51h-79.92c-4.42 0-8 3.58-8 8v97.94c0 7.45-6.08 13.51-13.54 13.51s-13.54-6.06-13.54-13.51V363.04c0-7.45 6.08-13.51 13.54-13.51h115.01v13.51zM171.56 144.92h5.25v19.81a8 8 0 0 0 4.54 7.21c1.1.53 2.28.79 3.46.79 1.79 0 3.56-.6 5.01-1.76l32.46-26.05h40.07c12.19 0 22.11-9.91 22.11-22.09v-6.4h5.25l32.46 26.05a8.012 8.012 0 0 0 5.01 1.76 8.01 8.01 0 0 0 8-8v-19.81h5.28c12.17 0 22.08-9.9 22.08-22.06V22.09c0-12.18-9.9-22.09-22.08-22.09h-90.82c-12.19 0-22.11 9.91-22.11 22.09v6.4h-55.97c-12.19 0-22.11 9.91-22.11 22.09v72.25c.01 12.18 9.92 22.09 22.11 22.09zm71.98-122.83c0-3.3 2.8-6.09 6.11-6.09h90.82c3.29 0 6.08 2.79 6.08 6.09v72.28c0 3.34-2.73 6.06-6.08 6.06h-13.28c-4.42 0-8 3.58-8 8v11.13l-21.65-17.37a8.006 8.006 0 0 0-5.01-1.76h-8.06V50.58c0-12.18-9.92-22.09-22.11-22.09h-18.82zm-78.08 28.49c0-3.36 2.74-6.09 6.11-6.09h90.79c3.37 0 6.11 2.73 6.11 6.09v72.25c0 3.3-2.8 6.09-6.11 6.09h-42.89c-1.82 0-3.59.62-5.01 1.76l-21.65 17.37v-11.13c0-4.42-3.58-8-8-8h-13.25c-3.37 0-6.11-2.73-6.11-6.09V50.58zm13.71 49.03c0-4.42 3.58-8 8-8h59.57c4.42 0 8 3.58 8 8s-3.58 8-8 8h-59.57c-4.41 0-8-3.58-8-8zm20.3-25.82c0-4.42 3.58-8 8-8h39.28c4.42 0 8 3.58 8 8s-3.58 8-8 8h-39.28c-4.42 0-8-3.58-8-8zm-20.29 0c0-4.42 3.58-8 8-8h.01c4.42 0 8 3.58 8 8s-3.58 8-8 8-8.01-3.58-8.01-8z" fill="#63c153" opacity="1" data-original="#000000" class=""></path></g></svg>