<svg xmlns="http://www.w3.org/2000/svg" version="1.1" xmlns:xlink="http://www.w3.org/1999/xlink" width="512" height="512" x="0" y="0" viewBox="0 0 64 64" style="enable-background:new 0 0 512 512" xml:space="preserve" class=""><g><path d="M13 22h-2a1 1 0 0 1-1-1v-2c0-3.309 2.691-6 6-6h2a1 1 0 0 1 1 1v2c0 3.309-2.691 6-6 6zm-1-2h1c2.206 0 4-1.794 4-4v-1h-1c-2.206 0-4 1.794-4 4z" fill="#63c153" opacity="1" data-original="#000000" class=""></path><path d="M11 27H9c-3.309 0-6-2.691-6-6v-2a1 1 0 0 1 1-1h2c3.309 0 6 2.691 6 6v2a1 1 0 0 1-1 1zm-6-7v1c0 2.206 1.794 4 4 4h1v-1c0-2.206-1.794-4-4-4z" fill="#63c153" opacity="1" data-original="#000000" class=""></path><path d="M11 30a1 1 0 0 1-1-1V19a1 1 0 1 1 2 0v10a1 1 0 0 1-1 1zM23 64H1a1 1 0 0 1-1-1V49a1 1 0 0 1 1-1h22a1 1 0 0 1 1 1v14a1 1 0 0 1-1 1zM2 62h20V50H2z" fill="#63c153" opacity="1" data-original="#000000" class=""></path><path d="M7 50H4a1 1 0 0 1-1-1v-3a1 1 0 0 1 1-1h3a1 1 0 0 1 1 1v3a1 1 0 0 1-1 1zm-2-2h1v-1H5zM20 50h-3a1 1 0 0 1-1-1v-3a1 1 0 0 1 1-1h3a1 1 0 0 1 1 1v3a1 1 0 0 1-1 1zm-2-2h1v-1h-1zM11 57a1 1 0 0 1-.948-1.317l1-3a1 1 0 1 1 1.897.633l-1 3a1 1 0 0 1-.948.684z" fill="#63c153" opacity="1" data-original="#000000" class=""></path><path d="M13 57h-2a1 1 0 1 1 0-2h2a1 1 0 1 1 0 2z" fill="#63c153" opacity="1" data-original="#000000" class=""></path><path d="M10.999 60a1 1 0 0 1-.831-1.555l2-3a1 1 0 1 1 1.664 1.11l-2 3a.998.998 0 0 1-.833.445zM20 61a1 1 0 0 1-1-1v-8a1 1 0 1 1 2 0v8a1 1 0 0 1-1 1zM4 61a1 1 0 0 1-1-1v-8a1 1 0 1 1 2 0v8a1 1 0 0 1-1 1zM26 63h-3a1 1 0 0 1-1-1v-5a1 1 0 0 1 1-1h3a1 1 0 0 1 1 1v5a1 1 0 0 1-1 1zm-2-2h1v-3h-1z" fill="#63c153" opacity="1" data-original="#000000" class=""></path><path d="M29 60h-3a1 1 0 1 1 0-2h3a1 1 0 1 1 0 2zM63 64H41a1 1 0 0 1-1-1V49a1 1 0 0 1 1-1h22a1 1 0 0 1 1 1v14a1 1 0 0 1-1 1zm-21-2h20V50H42z" fill="#63c153" opacity="1" data-original="#000000" class=""></path><path d="M60 50h-3a1 1 0 0 1-1-1v-3a1 1 0 0 1 1-1h3a1 1 0 0 1 1 1v3a1 1 0 0 1-1 1zm-2-2h1v-1h-1zM47 50h-3a1 1 0 0 1-1-1v-3a1 1 0 0 1 1-1h3a1 1 0 0 1 1 1v3a1 1 0 0 1-1 1zm-2-2h1v-1h-1zM51 57a1 1 0 0 1-.948-1.317l1-3a1 1 0 1 1 1.897.633l-1 3a1 1 0 0 1-.948.684z" fill="#63c153" opacity="1" data-original="#000000" class=""></path><path d="M53 57h-2a1 1 0 1 1 0-2h2a1 1 0 1 1 0 2z" fill="#63c153" opacity="1" data-original="#000000" class=""></path><path d="M50.999 60a1 1 0 0 1-.831-1.555l2-3a1 1 0 1 1 1.664 1.11l-2 3a.998.998 0 0 1-.833.445zM44 61a1 1 0 0 1-1-1v-8a1 1 0 1 1 2 0v8a1 1 0 0 1-1 1zM60 61a1 1 0 0 1-1-1v-8a1 1 0 1 1 2 0v8a1 1 0 0 1-1 1zM41 63h-3a1 1 0 0 1-1-1v-5a1 1 0 0 1 1-1h3a1 1 0 0 1 1 1v5a1 1 0 0 1-1 1zm-2-2h1v-3h-1z" fill="#63c153" opacity="1" data-original="#000000" class=""></path><path d="M38 60h-4a1 1 0 1 1 0-2h4a1 1 0 1 1 0 2zM34 52h-5a1 1 0 1 1 0-2h5a1 1 0 1 1 0 2z" fill="#63c153" opacity="1" data-original="#000000" class=""></path><path d="M34 60a1 1 0 0 1-1-1v-8a1 1 0 1 1 2 0v8a1 1 0 0 1-1 1zM39.561 37.96c-.034 0-.069-.002-.104-.005a14.957 14.957 0 0 1-12.835-10.64A14.925 14.925 0 0 1 26 23.03c0-.362.012-.714.045-1.064a14.72 14.72 0 0 1 1.754-6.069 14.972 14.972 0 0 1 3.356-4.183 14.897 14.897 0 0 1 5.559-3.062c1.72-.516 3.583-.745 5.351-.577 2.101.132 4.153.724 6.069 1.754a14.918 14.918 0 0 1 4.182 3.356 14.854 14.854 0 0 1 3.062 5.559c.413 1.379.622 2.821.622 4.286 0 .362-.012.713-.045 1.063a14.724 14.724 0 0 1-1.754 6.07 15.172 15.172 0 0 1-2.711 3.58c-.396.387-1.029.385-1.416-.006s-.391-1.017 0-1.405c.959-.94 1.75-1.985 2.369-3.121a12.796 12.796 0 0 0 1.52-5.275c.03-.32.038-.608.038-.906a12.935 12.935 0 0 0-3.193-8.533 12.944 12.944 0 0 0-3.624-2.908 12.79 12.79 0 0 0-5.276-1.521 9.423 9.423 0 0 0-.906-.038 12.935 12.935 0 0 0-8.533 3.193 12.93 12.93 0 0 0-2.908 3.624 12.771 12.771 0 0 0-1.521 5.275c-.03.32-.038.609-.038.907 0 1.27.181 2.52.538 3.714a12.962 12.962 0 0 0 11.124 9.221 1 1 0 0 1-.101 1.995z" fill="#63c153" opacity="1" data-original="#000000" class=""></path><path d="M41 34.03c-6.065 0-11-4.935-11-11s4.935-11 11-11 11 4.935 11 11-4.935 11-11 11zm0-20c-4.963 0-9 4.037-9 9s4.037 9 9 9 9-4.037 9-9-4.037-9-9-9z" fill="#63c153" opacity="1" data-original="#000000" class=""></path><path d="M39 20.57a1 1 0 0 1-1-1v-6.34a1 1 0 1 1 2 0v6.34a1 1 0 0 1-1 1zM39 33.83a1 1 0 0 1-1-1v-6.34a1 1 0 1 1 2 0v6.34a1 1 0 0 1-1 1zM43 33.83a1 1 0 0 1-1-1v-6.34a1 1 0 1 1 2 0v6.34a1 1 0 0 1-1 1zM43 20.57a1 1 0 0 1-1-1v-6.34a1 1 0 1 1 2 0v6.34a1 1 0 0 1-1 1z" fill="#63c153" opacity="1" data-original="#000000" class=""></path><path d="M37.54 26.03H31.2a1 1 0 1 1 0-2h6.34a1 1 0 1 1 0 2zM50.8 26.03h-6.34a1 1 0 1 1 0-2h6.34a1 1 0 1 1 0 2zM50.8 22.03h-6.34a1 1 0 1 1 0-2h6.34a1 1 0 1 1 0 2zM37.54 22.03H31.2a1 1 0 1 1 0-2h6.34a1 1 0 1 1 0 2zM37 10.61a1 1 0 0 1-1-1V1.1a1 1 0 0 1 .817-.983A6.526 6.526 0 0 1 38 .001c3.309 0 6 2.705 6 6.03a5.99 5.99 0 0 1-1.239 3.652 1 1 0 1 1-1.582-1.224A3.984 3.984 0 0 0 42 6.031c0-2.223-1.794-4.03-4-4.03v7.61a1 1 0 0 1-1 1zM28.683 17.369a.997.997 0 0 1-.707-.293l-5.997-5.996a1 1 0 0 1-.117-1.273c.241-.351.495-.66.754-.919a6.008 6.008 0 0 1 8.485 0 5.99 5.99 0 0 1 1.706 3.459 1 1 0 1 1-1.984.252 3.973 3.973 0 0 0-1.137-2.297 4.005 4.005 0 0 0-5.656 0l5.36 5.36a.999.999 0 0 1-.707 1.707zM27.58 28.03H19.1a1 1 0 0 1-.983-.817 6.006 6.006 0 0 1 5.884-7.183c1.322 0 2.619.439 3.651 1.238a.998.998 0 0 1 .18 1.402.998.998 0 0 1-1.402.18 4.004 4.004 0 0 0-6.429 3.18h7.58a1 1 0 1 1 0 2zM59.159 36.9a.998.998 0 0 1-.997-.945l-5.55-5.56a.999.999 0 1 1 1.416-1.412l5.989 6c.346.346.39.892.104 1.289l-.146.205a1 1 0 0 1-.817.422zM58 26.03a5.99 5.99 0 0 1-3.652-1.239 1 1 0 0 1 1.224-1.582A3.984 3.984 0 0 0 58 24.03c2.206 0 4-1.794 4-4h-7.58a1 1 0 1 1 0-2h8.48a1 1 0 0 1 .983.816 6.006 6.006 0 0 1-5.884 7.184zM51.556 14.845a1 1 0 0 1-.126-1.992 3.98 3.98 0 0 0 2.298-1.136c.755-.755 1.171-1.76 1.171-2.829s-.416-2.073-1.171-2.828l-5.359 5.359a.999.999 0 1 1-1.414-1.414l5.996-5.996a1 1 0 0 1 1.271-.118c.346.236.655.49.92.755 1.133 1.132 1.757 2.639 1.757 4.242s-.624 3.11-1.757 4.243a5.994 5.994 0 0 1-3.458 1.706 1.113 1.113 0 0 1-.128.008z" fill="#63c153" opacity="1" data-original="#000000" class=""></path><path d="M41 28.03c-2.757 0-5-2.243-5-5s2.243-5 5-5 5 2.243 5 5-2.243 5-5 5zm0-8c-1.654 0-3 1.346-3 3s1.346 3 3 3 3-1.346 3-3-1.346-3-3-3zM63 38.03c-3.396 0-5.175-1.147-6.744-2.159-1.531-.988-2.854-1.841-5.66-1.841s-4.129.853-5.66 1.841c-1.569 1.012-3.349 2.159-6.744 2.159s-5.172-1.147-6.74-2.16c-1.53-.987-2.852-1.84-5.656-1.84s-4.127.853-5.657 1.84c-1.569 1.013-3.348 2.16-6.742 2.16s-5.172-1.147-6.74-2.16c-1.53-.987-2.852-1.84-5.655-1.84a1 1 0 1 1 0-2c3.394 0 5.171 1.147 6.739 2.16 1.53.987 2.852 1.84 5.656 1.84s4.128-.853 5.658-1.841c1.569-1.012 3.347-2.159 6.741-2.159s5.172 1.147 6.74 2.16c1.53.987 2.852 1.84 5.656 1.84s4.129-.853 5.66-1.841c1.569-1.012 3.349-2.159 6.744-2.159s5.175 1.147 6.744 2.159c1.531.988 2.854 1.841 5.66 1.841a1 1 0 1 1 0 2zM28.88 31.03H1a1 1 0 1 1 0-2h27.88a1 1 0 1 1 0 2zM63 31.03h-9.748a1 1 0 1 1 0-2H63a1 1 0 1 1 0 2zM63 42H1a1 1 0 1 1 0-2h62a1 1 0 1 1 0 2z" fill="#63c153" opacity="1" data-original="#000000" class=""></path><path d="M29 60a1 1 0 0 1-1-1V30.22a1 1 0 1 1 2 0V59a1 1 0 0 1-1 1z" fill="#63c153" opacity="1" data-original="#000000" class=""></path></g></svg>