<svg xmlns="http://www.w3.org/2000/svg" version="1.1" xmlns:xlink="http://www.w3.org/1999/xlink" width="512" height="512" x="0" y="0" viewBox="0 0 512 512" style="enable-background:new 0 0 512 512" xml:space="preserve" class=""><g><path d="M17.08 349.312h461.865v71.25H17.08zM31.466 282.346h433.093M248.027 502v-81.437M124.622 502h246.78M378.383 243.075c64.185 0 116.538-52.353 116.538-116.537S442.568 10 378.383 10 261.845 62.353 261.845 126.538s52.353 116.537 116.538 116.537h0zM314.567 224.064l11.719 125.249m-156.547-.001 18.784-200.869M45.824 215.409H302.99" style="stroke-width:20;stroke-linecap:round;stroke-linejoin:round;stroke-miterlimit:10;" fill="none" stroke="#63c153" stroke-width="20" stroke-linecap="round" stroke-linejoin="round" stroke-miterlimit="10" data-original="#000000" opacity="1"></path><path d="m450.74 217.906 28.205 131.406H17.08l43.13-200.869h203.678" style="stroke-width:20;stroke-linecap:round;stroke-linejoin:round;stroke-miterlimit:10;" fill="none" stroke="#63c153" stroke-width="20" stroke-linecap="round" stroke-linejoin="round" stroke-miterlimit="10" data-original="#000000" opacity="1"></path><path d="M353.923 240.493v-54.566c-23.353-9.619-39.782-32.575-39.782-59.39 0-28.205 18.16-52.154 43.443-60.78v45.855c0 11.435 9.364 20.771 20.799 20.771 11.435 0 20.771-9.335 20.771-20.771V65.758c25.282 8.626 43.443 32.575 43.443 60.78 0 26.815-16.429 49.77-39.754 59.39v54.566" style="stroke-width:20;stroke-linecap:round;stroke-linejoin:round;stroke-miterlimit:10;" fill="none" stroke="#63c153" stroke-width="20" stroke-linecap="round" stroke-linejoin="round" stroke-miterlimit="10" data-original="#000000" opacity="1"></path></g></svg>