<svg xmlns="http://www.w3.org/2000/svg" version="1.1" xmlns:xlink="http://www.w3.org/1999/xlink" width="512" height="512" x="0" y="0" viewBox="0 0 372.872 372.872" style="enable-background:new 0 0 512 512" xml:space="preserve"><g><path d="M81.939 8.288s3.812 10.557 15.297 16.741c6.859 3.693 14.173 2.923 19.654 1.733-.093 5.088.428 11.395 4.345 17.018 3.729 5.353 9.098 7.67 13.792 9.086-2.75 3.927-5.548 8.8-5.5 14.996-.049 6.198 2.761 11.067 5.512 14.996-4.697 1.416-10.072 3.729-13.804 9.087-3.917 5.623-4.429 11.929-4.345 17.018-5.481-1.19-12.794-1.959-19.654 1.733-4.558 2.453-7.1 5.586-9.484 8.485-2.383-2.898-4.926-6.031-9.484-8.485-6.855-3.691-14.162-2.921-19.642-1.733.093-5.088-.426-11.395-4.345-17.018-3.729-5.353-9.11-7.671-13.804-9.087 2.751-3.928 5.548-8.798 5.5-14.996.049-6.196-2.75-11.068-5.5-14.996 4.694-1.416 10.075-3.733 13.804-9.086 4.009-5.755 4.485-12.258 4.369-17.403 3.714.822 7.759 1.709 12.408.999 8.401-1.025 6.472-13.7-1.853-12.18-6.019.918-15.056-2.768-15.056-2.768-4.687-2.201-9.833 2.01-8.605 7.041 0 0 .702 2.916.818 6.776s-.612 8.211-2.202 10.495c-1.502 2.156-5.091 3.984-8.665 4.91-3.574.927-6.499 1.011-6.499 1.011-5.552.14-8.109 6.966-4.008 10.712 0 0 2.283 2.096 4.585 5.199 2.303 3.102 4.114 7.065 4.092 9.231v.14c.025 2.159-1.777 6.117-4.08 9.219s-4.598 5.199-4.598 5.199c-4.101 3.745-1.544 10.578 4.008 10.712 0 0 2.925.093 6.499 1.011 3.574.927 7.163 2.754 8.665 4.911 1.591 2.285 2.319 6.635 2.202 10.495-.116 3.86-.818 6.776-.818 6.776-1.228 5.03 3.918 9.24 8.605 7.041 0 0 2.99-1.395 7.029-2.275 4.039-.881 8.605-.89 11.241.529 7.55 4.065 9.52 9.977 9.52 9.977 1.932 5.488 9.694 5.488 11.626 0 0 0 1.97-5.912 9.52-9.977 2.636-1.419 7.202-1.409 11.241-.529 4.039.881 7.029 2.275 7.029 2.275 4.687 2.201 9.833-2.01 8.605-7.041 0 0-.702-2.915-.818-6.776-.116-3.86.612-8.211 2.202-10.495 1.502-2.156 5.091-3.984 8.665-4.911s6.499-1.011 6.499-1.011c5.552-.14 8.109-6.966 4.008-10.712 0 0-2.282-2.096-4.585-5.199s-4.114-7.065-4.092-9.231v-.14c-.025-2.161 1.789-6.117 4.092-9.219s4.585-5.199 4.585-5.199c4.101-3.745 1.544-10.578-4.008-10.712 0 0-2.925-.093-6.499-1.011-3.574-.927-7.163-2.753-8.665-4.91-1.591-2.285-2.319-6.635-2.202-10.495.116-3.86.818-6.776.818-6.776 1.228-5.03-3.918-9.24-8.605-7.041 0 0-2.99 1.395-7.029 2.275-4.039.881-8.605.89-11.241-.529-7.55-4.065-9.52-9.977-9.52-9.977A6.16 6.16 0 0 0 87.402.009c-4.144.209-6.895 4.384-5.463 8.279zm5.825 28.752c-16.943 0-30.846 13.891-30.846 30.834s13.903 30.798 30.846 30.798 30.798-13.855 30.798-30.798S104.708 37.04 87.764 37.04zm0 12.324c10.283 0 18.462 8.228 18.462 18.51s-8.179 18.474-18.462 18.474-18.522-8.191-18.522-18.474a18.444 18.444 0 0 1 18.522-18.51zm190.687 61.632a6.14 6.14 0 0 0-3.875 1.638l-86.245 80.106c-6.034 5.584 2.343 14.635 8.376 9.051l82.056-76.231 61.632 57.228v100.747c-41.188-.093-82.05 0-123.217 0v-73.968c0-8.224-12.336-8.224-12.336 0v80.106a6.163 6.163 0 0 0 6.15 6.186h61.632v46.215c0 10.348-8.175 18.474-18.522 18.474h-141.69c-10.348 0-18.51-8.126-18.51-18.474v-27.741c.181-8.395-12.505-8.395-12.324 0v27.741c0 16.963 13.872 30.798 30.834 30.798h141.691c16.962 0 30.846-13.836 30.846-30.798v-46.215h61.584a6.163 6.163 0 0 0 6.186-6.186v-95.451l8.148 7.57c6.044 5.903 14.725-3.49 8.365-9.051l-16.512-15.333V117.16a6.163 6.163 0 0 0-6.162-6.162h-30.81a6.163 6.163 0 0 0-6.162 6.162v6.162c-.119 8.333 12.442 8.333 12.324 0h18.486v42.641l-57.444-53.328a6.161 6.161 0 0 0-4.501-1.639zM63.104 295.858h49.308c8.4.186 8.4-12.51 0-12.324h-18.51v-24.66h73.872c8.4.186 8.4-12.51 0-12.324h-31.159l-2.19-30.786h21.832l1.878 13.191c.9 8.486 13.722 6.668 12.228-1.733l-8.822-61.633a6.164 6.164 0 0 0-6.09-5.284l-135.481-.012c-8.554-.001-8.307 12.348-.072 12.348H44.16l-2.202 30.786H20.8l1.637-11.458c.61-3.903-2.558-7.364-6.499-7.101a6.172 6.172 0 0 0-5.693 5.368l-8.774 61.633c-.51 3.697 2.358 6.995 6.09 7.004h74.017v24.66H63.104c-8.367 0-8.048 12.324 0 12.325zm222.158-126.046a6.182 6.182 0 0 0-4.995 2.828l-25.563 38.345c-2.686 4.093.243 9.534 5.139 9.544h26.839l-19.196 28.8c-4.396 6.82 5.698 13.522 10.278 6.824l25.515-38.345c2.75-4.085-.165-9.587-5.091-9.604H271.35l19.148-28.752c2.836-4.146-.214-9.761-5.235-9.641zM56.509 172.64h25.069v30.786h-27.26zm37.393 0h25.069l2.214 30.786H93.902zm37.454 0h18.763l4.381 30.786h-20.953zM19.043 215.763h22.025l-2.202 30.786H14.662zm34.397 0h28.138v30.786H51.249zm40.462 0h28.162l2.214 30.786H93.902z" fill="#63c153" opacity="1" data-original="#000000"></path></g></svg>