<svg xmlns="http://www.w3.org/2000/svg" version="1.1" xmlns:xlink="http://www.w3.org/1999/xlink" width="512" height="512" x="0" y="0" viewBox="0 0 128 128" style="enable-background:new 0 0 512 512" xml:space="preserve" fill-rule="evenodd" class=""><g><path d="M92 62c16.557 0 30 13.443 30 30s-13.443 30-30 30-30-13.443-30-30 13.443-30 30-30zm0 4c-14.35 0-26 11.65-26 26s11.65 26 26 26 26-11.65 26-26-11.65-26-26-26zm8.827 8.814-4.733 10.625 8.886-.09a1.998 1.998 0 0 1 1.512 3.332l-22 24.651a2 2 0 0 1-3.289-2.211l7.576-15.487-7.759.078a2 2 0 0 1-1.497-3.349l18-19.712a2 2 0 0 1 3.304 2.163zm-8.681 9.658-6.57 7.194 6.404-.064a2 2 0 0 1 1.817 2.879l-2.618 5.351 9.315-10.437-7.474.075a2.003 2.003 0 0 1-1.847-2.814zM58.529 86H41v10h6c3.091 0 6 2.909 6 6v2a2 2 0 0 1-2 2H21a2 2 0 0 1-2-2v-2c0-3.091 2.909-6 6-6h6V86H8a2 2 0 0 1-2-2v-6c0-.248.045-.49.133-.718l10-26A2 2 0 0 1 18 50h36a2 2 0 0 1 1.867 1.282l8.205 21.332A33.915 33.915 0 0 0 60.182 80H10v2h49.497a33.653 33.653 0 0 0-.968 4zM24.331 76H34v-6h-8.746zm-.662-22h-4.295l-1.154 3h4.987zm2.201 12H34v-5h-7.361zM34 54h-6.284l-.462 3H34zM10.912 76h9.372l.923-6H13.22zM53.78 57l-1.154-3h-4.295l.462 3zm-37.099 4-1.923 5h7.065l.769-5zm35.035 15h9.372l-2.308-6h-7.987zM37 96V86h-2v10zm20.242-30-1.923-5h-5.911l.769 5zM44.284 54H38v3h6.746zM23 102h26c0-1.03-.97-2-2-2H25c-1.03 0-2 .97-2 2zm15-26h9.669l-.923-6H38zm0-10h8.13l-.769-5H38zm53-7.986V51h-1a2 2 0 0 1-2-2v-4h-1.111c-1.774 0-3.469-.597-4.724-1.624C80.753 42.221 80 40.634 80 39V23a2 2 0 0 1 2-2h4v-6a2 2 0 0 1 4 0v6h6v-6a2 2 0 0 1 4 0v6h4a2 2 0 0 1 2 2v16c0 1.634-.753 3.221-2.165 4.376-1.255 1.027-2.95 1.624-4.724 1.624H98v4a2 2 0 0 1-2 2h-1v7.131a34.22 34.22 0 0 0-4-.117zM102 35V25H84v10zm-18 4c0 .488.277.935.698 1.281.58.473 1.372.719 2.191.719h12.222c.819 0 1.611-.246 2.191-.719.421-.346.698-.793.698-1.281zm8 6v2h2v-2zM36 13c4.415 0 8 3.585 8 8s-3.585 8-8 8-8-3.585-8-8 3.585-8 8-8zm0 4c-2.208 0-4 1.792-4 4s1.792 4 4 4 4-1.792 4-4-1.792-4-4-4zm2-7a2 2 0 0 1-4 0V8a2 2 0 0 1 4 0zm7.192 4.636a2 2 0 1 1-2.828-2.828l1.414-1.415a2.003 2.003 0 0 1 2.829 0c.78.781.78 2.048 0 2.829zM47 23a2 2 0 0 1 0-4h2a2 2 0 0 1 0 4zm-4.636 7.192a2 2 0 1 1 2.828-2.828l1.415 1.414c.78.781.78 2.048 0 2.829-.781.78-2.048.78-2.829 0zM38 34a2 2 0 0 1-4 0v-2a2 2 0 0 1 4 0zm-9.778-2.393c-.781.78-2.048.78-2.829 0a2.003 2.003 0 0 1 0-2.829l1.415-1.414a2 2 0 1 1 2.828 2.828zM23 23a2 2 0 0 1 0-4h2a2 2 0 0 1 0 4zm2.393-9.778a2.003 2.003 0 0 1 0-2.829 2.003 2.003 0 0 1 2.829 0l1.414 1.415a2 2 0 1 1-2.828 2.828z" fill="#63c153" opacity="1" data-original="#000000" class=""></path></g></svg>