<svg xmlns="http://www.w3.org/2000/svg" version="1.1" xmlns:xlink="http://www.w3.org/1999/xlink" width="512" height="512" x="0" y="0" viewBox="0 0 60 60" style="enable-background:new 0 0 512 512" xml:space="preserve" class=""><g><path d="M53 24v-1h1.168A3 3 0 0 0 57 19L50.966 2a3.006 3.006 0 0 0-2.827-2H11.861a3.006 3.006 0 0 0-2.827 2L3 19a3 3 0 0 0 2.828 4H7v1a3 3 0 0 0 3 3h4a3 3 0 0 0 3-3v-1h26v1a3 3 0 0 0 3 3h4a3 3 0 0 0 3-3Zm1.985-3.423a.987.987 0 0 1-.817.423H47.79l-1.429-6h7.1l1.655 4.666a.988.988 0 0 1-.131.911ZM36.909 21l-.571-6h7.968l1.428 6h-8.825ZM16 21h-1.734l1.428-6h7.968l-.571 6ZM9.027 8h6.279l-1.191 5H7.253Zm8.334 0h6.968l-.476 5h-7.682ZM24.9 2l-.381 4h-6.682l.953-4Zm16.31 0 .953 4h-6.682L35.1 2Zm11.537 11h-6.862l-1.191-5h6.28Zm-8.918 0h-7.682l-.476-5h6.968Zm-9.691 0h-8.276l.476-5h7.324Zm-.666-7h-6.944l.381-4h6.182Zm-7.8 9h8.658l.571 6H25.1Zm23.41-12.334L50.264 6h-6.046l-.952-4h4.873a1 1 0 0 1 .943.666Zm-38.164 0A1 1 0 0 1 11.861 2h4.873l-.952 4H9.736Zm-5.9 17.911a.988.988 0 0 1-.126-.911L6.544 15h7.1l-1.434 6H5.832a.987.987 0 0 1-.817-.423ZM15 24a1 1 0 0 1-1 1h-4a1 1 0 0 1-1-1v-1h6Zm30 0v-1h6v1a1 1 0 0 1-1 1h-4a1 1 0 0 1-1-1ZM45 42h-1v-1a4 4 0 0 0-4-4h-2.036l1.786-2.4a1 1 0 0 0-.8-1.6h-9.326a1 1 0 0 0-.812.417L26.236 37H16a4 4 0 0 0-4 4v10a4 4 0 0 0 4 4h8.522l-1.015 3.738a1 1 0 0 0 1.726.911L29.206 55H40a4 4 0 0 0 4-4v-1h1a3 3 0 0 0 3-3v-2a3 3 0 0 0-3-3ZM16 53a2 2 0 0 1-2-2V41a2 2 0 0 1 2-2h8.8l-4.611 6.417A1 1 0 0 0 21 47h5.692l-1.628 6Zm12.965-6.738A1 1 0 0 0 28 45h-5.05l7.186-10h6.822L32.2 41.4A1 1 0 0 0 33 43h3.83l-8.794 10.291-.007.008-1.429 1.669ZM42 51a2 2 0 0 1-2 2h-9.085l8.845-10.351A1 1 0 0 0 39 41h-4.01l1.487-2H40a2 2 0 0 1 2 2v10Zm4-4a1 1 0 0 1-1 1h-1v-4h1a1 1 0 0 1 1 1ZM3 47h1.184a3 3 0 1 0 0-2H3a1 1 0 0 1-1-1v-7a1 1 0 0 1 1-1h7a3 3 0 0 0 3-3v-3a1 1 0 0 0-2 0v3a1 1 0 0 1-1 1H3a3 3 0 0 0-3 3v7a3 3 0 0 0 3 3Zm4-2a1 1 0 1 1-1 1 1 1 0 0 1 1-1ZM57 34h-7a1 1 0 0 1-1-1v-3a1 1 0 0 0-2 0v3a3 3 0 0 0 3 3h7a1 1 0 0 1 1 1v7a1 1 0 0 1-1 1h-1.184a3 3 0 1 0 0 2H57a3 3 0 0 0 3-3v-7a3 3 0 0 0-3-3Zm-4 13a1 1 0 1 1 1-1 1 1 0 0 1-1 1Z" fill="#63c153" opacity="1" data-original="#000000" class=""></path></g></svg>