<svg xmlns="http://www.w3.org/2000/svg" version="1.1" xmlns:xlink="http://www.w3.org/1999/xlink" width="512" height="512" x="0" y="0" viewBox="0 0 64 64" style="enable-background:new 0 0 512 512" xml:space="preserve" class=""><g><g data-name="Layer 22"><path d="M37.62 50.79A1 1 0 0 0 38 50v-5.33l4.53 2.41A1 1 0 0 0 44 46.2V34a19 19 0 0 0-12-17.65V14a3 3 0 0 0-1.66-2.67l3.59-9a1 1 0 0 0-.1-.93A1 1 0 0 0 33 1h-8a1 1 0 0 0-.89.55L23 3.76l-1.11-2.21A1 1 0 0 0 21 1h-5a1 1 0 0 0-.89 1.45l4.46 8.93A3 3 0 0 0 18 14v2.35A19 19 0 0 0 6 34v14.53a6 6 0 0 0-2 5A6.17 6.17 0 0 0 10.21 59H25.8a1 1 0 0 0 1-.81l.93-4.69 4.83 2.41A1 1 0 0 0 34 55v-4.72l2.76.69a1 1 0 0 0 .86-.18ZM20.38 3l1.73 3.45a1 1 0 0 0 1.78 0L25.62 3h5.9l-3.2 8h-6.7l-4-8ZM20 14a1 1 0 0 1 1-1h8a1 1 0 0 1 1 1v1.69a18.46 18.46 0 0 0-10 0Zm16.49 28.14A1 1 0 0 0 36 43v5.72L33.24 48a1 1 0 0 0-.86.18A1 1 0 0 0 32 49v4.38l-4.55-2.27a1 1 0 0 0-.89 0 1 1 0 0 0-.54.7L25 57H10.21A4.13 4.13 0 0 1 6 53.33a4 4 0 0 1 1.6-3.53A1 1 0 0 0 8 49V34a17 17 0 0 1 34 0v10.53l-4.53-2.41a1 1 0 0 0-.98.02Z" fill="#63c153" opacity="1" data-original="#000000" class=""></path><path d="M25 29a2 2 0 0 1 2 2h2a4 4 0 0 0-3-3.86V25h-2v2.14A4 4 0 0 0 25 35a2 2 0 1 1-2 2h-2a4 4 0 0 0 3 3.86V43h2v-2.14A4 4 0 0 0 25 33a2 2 0 0 1 0-4Z" fill="#63c153" opacity="1" data-original="#000000" class=""></path><path d="M25 21a13 13 0 1 0 13 13 13 13 0 0 0-13-13Zm0 24a11 11 0 1 1 11-11 11 11 0 0 1-11 11ZM42 51a5 5 0 1 0 5 5 5 5 0 0 0-5-5Zm0 8a3 3 0 1 1 3-3 3 3 0 0 1-3 3ZM50 52a5 5 0 1 0-5-5 5 5 0 0 0 5 5Zm0-8a3 3 0 1 1-3 3 3 3 0 0 1 3-3ZM55 53a5 5 0 1 0 5 5 5 5 0 0 0-5-5Zm0 8a3 3 0 1 1 3-3 3 3 0 0 1-3 3Z" fill="#63c153" opacity="1" data-original="#000000" class=""></path></g></g></svg>