<svg xmlns="http://www.w3.org/2000/svg" version="1.1" xmlns:xlink="http://www.w3.org/1999/xlink" width="512" height="512" x="0" y="0" viewBox="0 0 512 512" style="enable-background:new 0 0 512 512" xml:space="preserve"><g><path d="M431.29 255.9h-69.42M463.98 255.9h40.52v217.44H318.12" style="stroke-width:15;stroke-linecap:round;stroke-linejoin:round;stroke-miterlimit:10;" fill="none" stroke="#63c153" stroke-width="15" stroke-linecap="round" stroke-linejoin="round" stroke-miterlimit="10" data-original="#000000" opacity="1"></path><path d="M387.52 444.34h60.11l28.99-28.99V313.09l-28.99-28.2h-67.27" style="stroke-width:15;stroke-linecap:round;stroke-linejoin:round;stroke-miterlimit:10;" fill="none" stroke="#63c153" stroke-width="15" stroke-linecap="round" stroke-linejoin="round" stroke-miterlimit="10" data-original="#000000" opacity="1"></path><circle cx="433.136" cy="364.618" r="14.496" style="stroke-width:15;stroke-linecap:round;stroke-linejoin:round;stroke-miterlimit:10;" fill="none" stroke="#63c153" stroke-width="15" stroke-linecap="round" stroke-linejoin="round" stroke-miterlimit="10" data-original="#000000" opacity="1"></circle><path d="m209.58 162.71-52.49 82.33M99.34 349.09c2.1-10.64 5.71-20.88 10.73-30.31l29.44-46.18M224.97 473.34h99.4c49.96 0 90.45-45.69 90.45-102.06v-.08c0-18.44-4.42-36.54-12.81-52.37l-99.59-156.12M206.21 131.65 182.4 98.57a27.296 27.296 0 0 1-6.9-18.17c0-9.41 4.8-18.68 13.75-23.85 4.36-2.52 9.08-3.7 13.71-3.7 11.34 0 22.18 7.07 26.1 18.78a27.6 27.6 0 0 1-.56-5.53c0-14.8 12.02-27.44 27.5-27.44 17.38 0 30.4 15.93 26.94 32.97" style="stroke-width:15;stroke-linecap:round;stroke-linejoin:round;stroke-miterlimit:10;" fill="none" stroke="#63c153" stroke-width="15" stroke-linecap="round" stroke-linejoin="round" stroke-miterlimit="10" data-original="#000000" opacity="1"></path><path d="m282.93 71.65.01-.02c5.52-16.48 24.76-23.77 39.81-15.08 15.06 8.69 18.37 29 6.85 42.02l-23.81 33.08M229.32 345.945h0a19.917 19.917 0 0 0 19.077 14.194h13.657c12.175 0 22.045-9.87 22.045-22.045v0c0-12.175-9.87-22.045-22.045-22.045h-12.109c-12.175 0-22.045-9.87-22.045-22.045v0c0-12.175 9.87-22.045 22.045-22.045h10.818c8.795 0 16.55 5.769 19.077 14.194v0M256 248.714v23.246M256 360.139v23.246M201.109 162.713h109.782c8.578 0 15.531-6.954 15.531-15.531v0c0-8.578-6.953-15.531-15.531-15.531H201.109c-8.578 0-15.531 6.954-15.531 15.531v0c0 8.578 6.953 15.531 15.531 15.531zM38.536 442.274h186.431v31.062H38.536zM7.502 411.211h186.374v31.062H7.502zM148.09 380.15h76.88v31.06H38.54v-31.06h76.87M148.09 380.15h45.79v-31.06H7.5v31.06h107.91" style="stroke-width:15;stroke-linecap:round;stroke-linejoin:round;stroke-miterlimit:10;" fill="none" stroke="#63c153" stroke-width="15" stroke-linecap="round" stroke-linejoin="round" stroke-miterlimit="10" data-original="#000000" opacity="1"></path></g></svg>