<svg xmlns="http://www.w3.org/2000/svg" version="1.1" xmlns:xlink="http://www.w3.org/1999/xlink" width="512" height="512" x="0" y="0" viewBox="0 0 512 512" style="enable-background:new 0 0 512 512" xml:space="preserve" class=""><g><path d="M337.29 301.09h-53.98c4.87-12.45 7.57-24.73 8.54-36.92" style="stroke-width:15;stroke-linecap:round;stroke-linejoin:round;stroke-miterlimit:10;" fill="none" stroke="#63c153" stroke-width="15" stroke-linecap="round" stroke-linejoin="round" stroke-miterlimit="10" data-original="#000000" class="" opacity="1"></path><path d="M266.34 473.31H223.4c-5.82 0-11.45-1.97-16.06-5.51-12.17-9.33-25.05-11.3-40.7-12.23V318.68c36.81-42.07 83.46-46.02 80.2-108.87-.57-10.88 8.1-20.01 18.99-20.01 8.33 0 15.74 5.41 18.17 13.38 2.88 9.44 5.13 18.86 6.55 28.3M347.29 473.31h-48.26M128.492 330.098v19.124" style="stroke-width:15;stroke-linecap:round;stroke-linejoin:round;stroke-miterlimit:10;" fill="none" stroke="#63c153" stroke-width="15" stroke-linecap="round" stroke-linejoin="round" stroke-miterlimit="10" data-original="#000000" class="" opacity="1"></path><path d="M98.49 392.82v80.49l68.2-.04V285.58l-68.2.03v74.52M381.993 344.148h-44.701c-11.889 0-21.527-9.638-21.527-21.527v0c0-11.889 9.638-21.527 21.527-21.527h44.701c11.889 0 21.527 9.638 21.527 21.527v0c.001 11.889-9.637 21.527-21.527 21.527zM381.993 430.257h-44.701c-11.889 0-21.527-9.638-21.527-21.527v0c0-11.889 9.638-21.527 21.527-21.527h44.701c11.889 0 21.527 9.638 21.527 21.527v0c.001 11.889-9.637 21.527-21.527 21.527zM371.994 473.312h-24.702c-11.889 0-21.527-9.638-21.527-21.527v0c0-11.889 9.638-21.527 21.527-21.527h24.702c11.889 0 21.527 9.638 21.527 21.527v0c0 11.889-9.638 21.527-21.527 21.527zM391.993 387.203h-44.701c-11.889 0-21.527-9.638-21.527-21.527v0c0-11.889 9.638-21.527 21.527-21.527h44.701c11.889 0 21.527 9.638 21.527 21.527v0c0 11.889-9.638 21.527-21.527 21.527zM283.306 301.094v18.311c0 24.96-20.234 45.193-45.193 45.193h0M262.284 42.59l9.493 19.234a6.999 6.999 0 0 0 5.27 3.829l21.226 3.084c5.741.834 8.034 7.89 3.879 11.939l-15.359 14.972a6.998 6.998 0 0 0-2.013 6.196l3.626 21.141c.981 5.718-5.021 10.079-10.156 7.379l-18.985-9.981a7.001 7.001 0 0 0-6.515 0l-18.985 9.981c-5.135 2.7-11.137-1.661-10.156-7.379l3.626-21.141a7 7 0 0 0-2.013-6.196l-15.359-14.972c-4.154-4.05-1.862-11.105 3.879-11.939l21.226-3.084a6.997 6.997 0 0 0 5.27-3.829l9.493-19.234c2.566-5.203 9.985-5.203 12.553 0zM151.894 82.588l9.493 19.234a6.999 6.999 0 0 0 5.27 3.829l21.226 3.084c5.741.834 8.034 7.89 3.879 11.939l-15.359 14.972a6.998 6.998 0 0 0-2.013 6.196l3.626 21.141c.981 5.718-5.021 10.079-10.156 7.379l-18.985-9.981a7.001 7.001 0 0 0-6.515 0l-18.985 9.981c-5.135 2.7-11.137-1.661-10.156-7.379l3.626-21.141a7 7 0 0 0-2.013-6.196l-15.359-14.972c-4.154-4.05-1.862-11.105 3.879-11.939l21.226-3.084a6.997 6.997 0 0 0 5.27-3.829l9.493-19.234c2.567-5.202 9.986-5.202 12.553 0zM62.044 172.585l9.493 19.234a6.999 6.999 0 0 0 5.27 3.829l21.226 3.084c5.741.834 8.034 7.89 3.879 11.939l-15.359 14.972a6.998 6.998 0 0 0-2.013 6.196l3.626 21.141c.981 5.718-5.021 10.079-10.156 7.379l-18.985-9.981a7.001 7.001 0 0 0-6.515 0l-18.985 9.981c-5.135 2.7-11.137-1.661-10.156-7.379l3.626-21.141a7 7 0 0 0-2.013-6.196L9.621 210.672c-4.154-4.05-1.862-11.105 3.879-11.939l21.226-3.084a6.997 6.997 0 0 0 5.27-3.829l9.493-19.234c2.569-5.203 9.987-5.203 12.555-.001zM462.51 172.585l9.493 19.234a6.999 6.999 0 0 0 5.27 3.829l21.226 3.084c5.741.834 8.034 7.89 3.879 11.939l-15.359 14.972a6.998 6.998 0 0 0-2.013 6.196l3.626 21.141c.981 5.718-5.021 10.079-10.156 7.379l-18.985-9.981a7.001 7.001 0 0 0-6.515 0l-18.985 9.981c-5.135 2.7-11.137-1.661-10.156-7.379l3.626-21.141a7 7 0 0 0-2.013-6.196l-15.359-14.972c-4.154-4.05-1.862-11.105 3.879-11.939l21.226-3.084a6.997 6.997 0 0 0 5.27-3.829l9.493-19.234c2.567-5.202 9.985-5.202 12.553 0zM372.968 82.588l9.493 19.234a6.999 6.999 0 0 0 5.27 3.829l21.226 3.084c5.741.834 8.034 7.89 3.879 11.939l-15.359 14.972a6.998 6.998 0 0 0-2.013 6.196l3.626 21.141c.981 5.718-5.021 10.079-10.156 7.379l-18.985-9.981a7.001 7.001 0 0 0-6.515 0l-18.985 9.981c-5.135 2.7-11.137-1.661-10.156-7.379l3.626-21.141a7 7 0 0 0-2.013-6.196l-15.359-14.972c-4.154-4.05-1.862-11.105 3.879-11.939l21.226-3.084a6.997 6.997 0 0 0 5.27-3.829l9.493-19.234c2.567-5.202 9.986-5.202 12.553 0z" style="stroke-width:15;stroke-linecap:round;stroke-linejoin:round;stroke-miterlimit:10;" fill="none" stroke="#63c153" stroke-width="15" stroke-linecap="round" stroke-linejoin="round" stroke-miterlimit="10" data-original="#000000" class="" opacity="1"></path></g></svg>