<svg xmlns="http://www.w3.org/2000/svg" version="1.1" xmlns:xlink="http://www.w3.org/1999/xlink" width="512" height="512" x="0" y="0" viewBox="0 0 64 64" style="enable-background:new 0 0 512 512" xml:space="preserve" class=""><g><path d="M54 21c4.963 0 9-4.037 9-9v-1h-5a8.985 8.985 0 0 0-7 3.355V10c0-4.963-4.037-9-9-9s-9 4.037-9 9v44c0 3.859-3.141 7-7 7h-2c-3.859 0-7-3.141-7-7v-3.069c3.94-.495 7-3.859 7-7.931v-2.184c1.161-.414 2-1.514 2-2.816s-.839-2.402-2-2.816v-6.518c4.199-2.661 7-7.338 7-12.667 0-8.271-6.729-15-15-15S1 7.729 1 16c0 5.329 2.801 10.005 7 12.667v6.518c-1.161.413-2 1.513-2 2.815s.839 2.402 2 2.816V43c0 4.072 3.06 7.436 7 7.931V54c0 4.963 4.037 9 9 9h2c4.963 0 9-4.037 9-9V10c0-3.859 3.141-7 7-7s7 3.141 7 7v5.111A6.973 6.973 0 0 0 44 13h-5v1c0 3.859 3.141 7 7 7h3v6.111A6.973 6.973 0 0 0 44 25h-5v1c0 3.859 3.141 7 7 7h3v4h-2.754l-4.572 16h5.982l-2.023 6.743a2.508 2.508 0 0 0 .393 2.237A2.51 2.51 0 0 0 48.055 63c.965 0 1.832-.535 2.263-1.397L58.618 45h-5.337l2-8H51v-2h3c4.963 0 9-4.037 9-9v-1h-5a8.985 8.985 0 0 0-7 3.355V21zM22 35h-2v-4.558a14.983 14.983 0 0 0 2-.703zm-6-4c.68 0 1.344-.061 2-.149V35h-4v-4.149c.656.088 1.32.149 2 .149zm12.637-18H24a1 1 0 0 1-1-1c0-1.654-1.346-3-3-3h-3a1 1 0 0 1 0-2h8.359a12.993 12.993 0 0 1 3.278 6zM16 3a12.9 12.9 0 0 1 6.896 2H17c-1.654 0-3 1.346-3 3s1.346 3 3 3h3a1 1 0 0 1 1 1c0 1.654 1.346 3 3 3h4.949c.026.331.051.662.051 1 0 7.168-5.832 13-13 13a12.9 12.9 0 0 1-6.896-2H18c1.654 0 3-1.346 3-3s-1.346-3-3-3h-8a1 1 0 0 1 0-2h2c1.654 0 3-1.346 3-3s-1.346-3-3-3H4.001c-.226 0-.445.03-.657.077C4.675 7.314 9.838 3 16 3zM3 16c0-.024.003-.047.004-.071.012-.514.454-.929.997-.929H12a1 1 0 0 1 0 2h-2c-1.654 0-3 1.346-3 3s1.346 3 3 3h8a1 1 0 0 1 0 2H6.641C4.392 22.662 3 19.493 3 16zm9 14.442V35h-2v-5.261c.644.282 1.313.512 2 .703zM9 37h14a1 1 0 0 1 0 2H9a1 1 0 0 1 0-2zm1 6v-2h12v2c0 3.309-2.691 6-6 6s-6-2.691-6-6zm36-24a5.008 5.008 0 0 1-4.899-4H44a5.008 5.008 0 0 1 4.899 4zm0 12a5.008 5.008 0 0 1-4.899-4H44a5.008 5.008 0 0 1 4.899 4zm9.382 16-6.854 13.708a.531.531 0 0 1-.897.079.52.52 0 0 1-.082-.469L50.344 51h-6.018l3.428-12h4.965l-2 8zM58 27h2.929c-.486 3.388-3.408 6-6.929 6h-2.929c.487-3.388 3.408-6 6.929-6zm0-14h2.929c-.486 3.388-3.408 6-6.929 6h-2.929c.487-3.388 3.408-6 6.929-6z" fill="#63c153" opacity="1" data-original="#000000"></path></g></svg>