<svg xmlns="http://www.w3.org/2000/svg" version="1.1" xmlns:xlink="http://www.w3.org/1999/xlink" width="512" height="512" x="0" y="0" viewBox="0 0 64 64" style="enable-background:new 0 0 512 512" xml:space="preserve" class=""><g><path d="M32 20a6 6 0 1 0-6-6 6.006 6.006 0 0 0 6 6Zm0-10a4 4 0 1 1-4 4 4 4 0 0 1 4-4ZM32 6a1 1 0 0 0 1-1V3a1 1 0 0 0-2 0v2a1 1 0 0 0 1 1ZM33 23a1 1 0 0 0-2 0v2a1 1 0 0 0 2 0ZM40 14a1 1 0 0 0 1 1h2a1 1 0 0 0 0-2h-2a1 1 0 0 0-1 1ZM24.929 8.343a1 1 0 0 0 1.414-1.414l-1.414-1.414a1 1 0 0 0-1.414 1.414ZM39.778 22.778a1 1 0 0 0 .707-1.707l-1.414-1.414a1 1 0 0 0-1.414 1.414l1.414 1.414a1 1 0 0 0 .707.293ZM38.364 8.636a1 1 0 0 0 .707-.293l1.414-1.414a1 1 0 1 0-1.414-1.414l-1.414 1.414a1 1 0 0 0 .707 1.707ZM24.929 19.657l-1.414 1.414a1 1 0 1 0 1.414 1.414l1.414-1.414a1 1 0 0 0-1.414-1.414ZM50 17a2.964 2.964 0 0 0 1.379-.342 4.062 4.062 0 0 0 3.242 0A2.964 2.964 0 0 0 56 17a3 3 0 0 0 .472-5.963 3.977 3.977 0 0 0-6.944 0A3 3 0 0 0 50 17Zm-.024-4 .11.013a1.008 1.008 0 0 0 1.035-.667 1.981 1.981 0 0 1 3.754 0 1 1 0 0 0 1.035.667l.115-.013A1 1 0 0 1 56 15a.988.988 0 0 1-.659-.258 1 1 0 0 0-1.225-.082 2.033 2.033 0 0 1-2.232 0 1 1 0 0 0-1.225.082A.988.988 0 0 1 50 15a1 1 0 0 1-.024-2ZM11 19a1 1 0 0 0 0-2 1 1 0 0 1 0-2 1 1 0 0 0 1-1 2.995 2.995 0 0 1 5.723-1.24 1 1 0 0 0 1.368.473 2 2 0 1 1-.612 3.045 1 1 0 0 0-1.445-.088A2.985 2.985 0 0 1 15 17a1 1 0 0 0 0 2 4.946 4.946 0 0 0 2.654-.773A3.961 3.961 0 0 0 20 19a4 4 0 0 0 0-8 3.82 3.82 0 0 0-.927.114 4.993 4.993 0 0 0-9 2.032A3 3 0 0 0 11 19ZM42.293 25.293a1 1 0 0 0 0 1.414l8.5 8.5a1 1 0 0 0 1.414-1.414l-8.5-8.5a1 1 0 0 0-1.414 0ZM32 30a1 1 0 0 0-1 1v8a1 1 0 0 0 2 0v-8a1 1 0 0 0-1-1ZM36.594 25.086a1 1 0 0 0-.508 1.32l4 9a1 1 0 1 0 1.828-.812l-4-9a1 1 0 0 0-1.32-.508ZM9.628 54.929A1.015 1.015 0 0 0 10 55a1 1 0 0 0 .929-.628l2-5a1 1 0 0 0-1.376-1.267l-1.653.824 1.024-2.557a1 1 0 1 0-1.858-.744l-2 5A1 1 0 0 0 8.447 51.9l1.648-.824-1.024 2.552a1 1 0 0 0 .557 1.301Z" fill="#63c153" opacity="1" data-original="#000000" class=""></path><path d="M61 53a1 1 0 0 0 1-1V39a.985.985 0 0 0-1-1H37a1 1 0 0 0-.832.445l-12 18a.914.914 0 0 0-.057.118c-.013.027-.028.051-.039.079a1 1 0 0 0-.068.34V58H23a1 1 0 0 1-1-1V31a3 3 0 0 0-3-3h-7a3 3 0 0 0-3 3v3H7a1 1 0 0 0-1 1v3H5a3 3 0 0 0-3 3v18a3 3 0 0 0 3 3h10a3 3 0 0 0 3-3v-9a1 1 0 0 0-2 0v9a1 1 0 0 1-1 1H5a1 1 0 0 1-1-1V41a1 1 0 0 1 1-1h10a1 1 0 0 1 1 1v5a1 1 0 0 0 2 0v-5a3 3 0 0 0-3-3h-1v-3a1 1 0 0 0-1-1h-2v-3a1 1 0 0 1 1-1h7a1 1 0 0 1 1 1v26a3 3 0 0 0 3 3h1v1a1 1 0 0 0 1 1h36a1 1 0 0 0 1-1v-5a1 1 0 0 0-2 0v4H50v-2.7l10-15V52a1 1 0 0 0 1 1ZM12 38H8v-2h4Zm30.869 18 2.666-4h5.6l-2.666 4Zm-8 0 2.666-4h5.6l-2.666 4Zm6.666-10h5.6l-2.666 4h-5.6ZM53 46h2.131l-2.666 4h-5.6l2.964-4.445L53.535 40h5.6l-2.667 4H53a1 1 0 0 0 0 2Zm-4.535-2h-5.6l2.666-4h5.6Zm-10.93-4h5.6l-2.666 4h-5.6Zm-8 12H33a1 1 0 0 0 0-2h-2.131l2.666-4h5.6l-2.964 4.445L32.465 56h-5.6ZM26 58h22v2H26Z" fill="#63c153" opacity="1" data-original="#000000" class=""></path></g></svg>