<svg xmlns="http://www.w3.org/2000/svg" version="1.1" xmlns:xlink="http://www.w3.org/1999/xlink" width="512" height="512" x="0" y="0" viewBox="0 0 512 512" style="enable-background:new 0 0 512 512" xml:space="preserve" class=""><g><path d="M446.517 419.188v-24.042c13.963-10.06 22.25-26.297 22.25-43.766 0-16.903-7.963-33.003-21.285-43.054a9.854 9.854 0 0 0-10.401-.982c-3.432 1.703-5.564 5.15-5.564 8.996v25.09c0 .288-.179.41-.25.41h-20.67c-.085 0-.25-.145-.25-.41v-25.09c0-3.84-2.126-7.285-5.548-8.99a9.864 9.864 0 0 0-10.402.965c-12.179 9.198-19.855 23.424-21.1 38.688l-83.069-27.952a11.924 11.924 0 0 1-8.131-11.311v-.006c29.35-16.542 49.886-46.957 52.634-82.289 13.857-.247 25.516-12.186 25.516-26.095 0-7.649-3.402-14.781-8.963-19.655a29.683 29.683 0 0 0 3.158-13.345c0-13.883-9.52-25.584-22.375-28.92v-33c0-36.294-24.441-67.743-58.94-77.039C272.602 12.199 260.088 0 244.771 0h-26.848c-15.318 0-27.832 12.199-28.357 27.391-34.499 9.296-58.94 40.746-58.94 77.039v33c-12.855 3.335-22.375 15.036-22.375 28.92 0 4.795 1.142 9.325 3.158 13.345-5.561 4.874-8.963 12.006-8.963 19.655 0 13.928 11.524 25.861 25.516 26.095 2.748 35.332 23.284 65.747 52.634 82.289v.006c0 5.13-3.268 9.676-8.132 11.312l-84.4 28.4c-27.338 9.251-44.328 33.866-44.831 62.384V504.5a7.5 7.5 0 0 0 7.5 7.5h.003a7.5 7.5 0 0 0 7.5-7.5v-94.66c.337-17.224 8.802-33.468 23.488-42.836l21.575 24.074a43.816 43.816 0 0 1 11.198 29.277V504.5a7.5 7.5 0 0 0 15 0v-22.986h94.349V504.5a7.5 7.5 0 0 0 15 0v-22.986h94.35V504.5a7.5 7.5 0 0 0 15 0v-84.14a43.818 43.818 0 0 1 11.195-29.284l17.559-19.59c3.731 9.396 10.038 17.646 18.396 23.661v21.567c-11.624-1.279-22.056 7.295-22.057 19.082v57.123c0 10.521 8.56 19.082 19.082 19.082h41.257c19.27 0 34.947-15.677 34.947-34.947v-25.392c.001-14.719-9.151-27.333-22.058-32.474zM345.247 199.35c0 5.676-4.541 10.636-10.2 11.066v-16.094a29.865 29.865 0 0 0 6.391-3.334c2.363 2.073 3.809 5.107 3.809 8.362zm-217.601 11.066c-5.674-.432-10.2-5.361-10.2-11.066 0-3.255 1.446-6.289 3.809-8.363a29.818 29.818 0 0 0 6.391 3.334zm-4.395-44.066c0-8.19 6.655-14.854 14.84-14.872l99.633-.002a7.5 7.5 0 0 0 0-15h-92.098V104.43c0-28.075 18.002-52.58 43.915-61.367v44.98a7.5 7.5 0 0 0 15 0V28.382c0-7.379 6.003-13.382 13.382-13.382h26.848c7.379 0 13.382 6.003 13.382 13.382v59.662a7.5 7.5 0 0 0 15 0v-44.98c25.913 8.787 43.915 33.292 43.915 61.367v32.046h-44.342a7.5 7.5 0 0 0 0 15l51.842.003c8.197 0 14.875 6.668 14.875 14.87 0 8.201-6.672 14.873-14.874 14.873H138.125c-8.201 0-14.874-6.672-14.874-14.873zm19.395 50.98v-21.107h177.4v21.107c0 48.909-39.791 88.7-88.7 88.7s-88.7-39.791-88.7-88.7zm52.117 97.034c11.382 4.306 23.712 6.666 36.583 6.666s25.201-2.36 36.583-6.666c2.287 9.031 9.126 16.345 18.287 19.164-15.348 12.663-34.784 19.758-54.871 19.758s-39.523-7.095-54.871-19.758c9.105-2.909 16.022-10.097 18.289-19.164zm36.448 119.013a208.674 208.674 0 0 1-27.07-30.196 7.5 7.5 0 0 0-12.092 8.876 223.625 223.625 0 0 0 31.797 34.867v19.59h-94.349v-46.159a58.793 58.793 0 0 0-15.027-39.287l-18.367-20.495 60.969-20.516a223.633 223.633 0 0 0 15.965 41.096c1.897 3.735 6.454 5.134 10.083 3.291a7.5 7.5 0 0 0 3.291-10.083 208.037 208.037 0 0 1-9.645-22.092c16.158 10.344 35.109 16.017 54.58 16.017 19.143 0 37.78-5.489 53.757-15.504a228.297 228.297 0 0 1-53.892 80.595zm117.01-52.313a58.804 58.804 0 0 0-15.024 39.295v46.154h-94.35v-19.712a243.692 243.692 0 0 0 39.988-48.484 243.366 243.366 0 0 0 26.6-58.323l61.153 20.577zm39.876-29.684a39.39 39.39 0 0 1 7.25-22.747v12.797c0 8.497 6.841 15.41 15.25 15.41h20.67c8.409 0 15.25-6.913 15.25-15.41v-12.881c4.685 6.516 7.25 14.427 7.25 22.831 0 13.026-6.346 25.087-16.998 32.279a11.979 11.979 0 0 0-5.252 9.911v23.145h-21.17V393.57c0-3.969-1.963-7.674-5.273-9.926-10.631-7.177-16.977-19.238-16.977-32.264zm65.479 125.673c0 10.999-8.948 19.947-19.947 19.947h-41.257a4.087 4.087 0 0 1-4.082-4.082v-57.123a4.087 4.087 0 0 1 4.082-4.082h41.257c10.999 0 19.947 8.948 19.947 19.947zM249.255 279.534a7.5 7.5 0 1 0-8.688-12.228c-1.462 1.038-4.529 2.802-8.649 2.95-4.663.168-8.141-1.78-9.8-2.956a7.5 7.5 0 1 0-8.672 12.24c3.074 2.178 9.392 5.727 17.907 5.727 7.46 0 14.395-3.242 17.902-5.733zm-61.786-74.866a7.5 7.5 0 0 0-7.5 7.5v15.523a7.5 7.5 0 0 0 15 0v-15.523a7.5 7.5 0 0 0-7.5-7.5zm87.756 30.524a7.5 7.5 0 0 0 7.5-7.5v-15.523a7.5 7.5 0 0 0-15 0v15.523a7.5 7.5 0 0 0 7.5 7.5z" fill="#63c153" opacity="1" data-original="#000000"></path></g></svg>