<svg xmlns="http://www.w3.org/2000/svg" version="1.1" xmlns:xlink="http://www.w3.org/1999/xlink" width="512" height="512" x="0" y="0" viewBox="0 0 64 64" style="enable-background:new 0 0 512 512" xml:space="preserve" class=""><g><path d="M11.68 16.511a10.951 10.951 0 0 0-2.013 5.6 1 1 0 0 0 1.996.139 8.945 8.945 0 0 1 1.644-4.578 1 1 0 0 0-.232-1.395 1.003 1.003 0 0 0-1.395.234zM26.839 13.813a1 1 0 1 0-1.133 1.648 9.04 9.04 0 0 1 3.178 3.849.999.999 0 1 0 1.834-.796 11.022 11.022 0 0 0-3.879-4.701zM25.918 8.867c5.809 2.2 9.711 7.833 9.711 14.018 0 .426-.03.845-.064 1.263a1 1 0 1 0 1.992.166c.04-.472.072-.947.072-1.429 0-7.01-4.422-13.395-11.002-15.888a1 1 0 1 0-.709 1.87zM14.26 38.555a1 1 0 0 0 .4-1.917 15.006 15.006 0 0 1-2.412-1.319 1 1 0 1 0-1.121 1.657 17.106 17.106 0 0 0 2.734 1.497c.13.055.266.082.399.082zM4.865 26.529a1 1 0 0 0 .987-1.166 14.96 14.96 0 0 1-.224-2.479c0-5.719 3.352-11.024 8.539-13.515a1 1 0 1 0-.865-1.802c-5.877 2.822-9.674 8.834-9.674 15.318 0 .882.082 1.801.251 2.81.083.488.507.834.986.834zM30.035 34.552a15.029 15.029 0 0 1-3.438 2.086 1 1 0 1 0 .798 1.833 16.989 16.989 0 0 0 3.895-2.364 1 1 0 1 0-1.255-1.555zM61 60h-9.037l-.742-20.036a1.012 1.012 0 0 0-1.036-.962 1 1 0 0 0-.962 1.037L49.555 49h-2.111l.432-11.663.113-.194c.198.03.396.061.602.061a3.96 3.96 0 0 0 1.717-.402l8.636 4.986a2.015 2.015 0 0 0 1.546.204 2.035 2.035 0 0 0 .997-3.319l-4.332-4.885a5.768 5.768 0 0 0-4.282-1.938l-.534-.002c-.558-1.537-2.019-2.644-3.747-2.644-.54 0-1.054.11-1.524.305l-.136-.237a3.766 3.766 0 0 1-.303-3.052l2.137-6.183v6.883a1 1 0 1 0 2 0v-6.883A2.04 2.04 0 0 0 48.729 18c-.877 0-1.653.559-1.932 1.393l-2.065 6.194a5.764 5.764 0 0 0 .464 4.677l.271.474a3.95 3.95 0 0 0-.857 2.297l-8.59 4.96a2.02 2.02 0 0 0-.949 1.237 2.035 2.035 0 0 0 2.376 2.523l6.396-1.309a5.743 5.743 0 0 0 1.949-.801L45.037 60H37a1 1 0 1 0 0 2h24a1 1 0 1 0 0-2zm-11.371-9 .074 2h-2.407l.074-2zm6.03-15.886 4.285 4.941-8.027-4.635a3.98 3.98 0 0 0 .609-1.572l.338.001a3.764 3.764 0 0 1 2.795 1.265zm-5.067-1.91c0 1.103-.897 2-2 2s-2-.897-2-2 .897-2 2-2 2 .897 2 2zm-7.152 5.283-6.422 1.241 8.059-4.653c.264.494.625.924 1.063 1.267l-.208.357a3.758 3.758 0 0 1-2.492 1.788zM47.223 55h2.555l.185 5h-2.925z" fill="#63c153" opacity="1" data-original="#000000" class=""></path><path d="M33 60h-8.397l-.869-32.134 11.589 6.69a2.454 2.454 0 0 0 3.35-.897 2.451 2.451 0 0 0-.289-2.853l-6.064-6.838a7.67 7.67 0 0 0-5.697-2.578l-1.248-.006c-.642-2.021-2.514-3.499-4.744-3.499-.791 0-1.529.201-2.194.529l-.478-.836a5.67 5.67 0 0 1-.456-4.599l2.892-8.671A.444.444 0 0 1 20.82 4c.249 0 .452.203.452.452v11.253a1 1 0 1 0 2 0V4.452A2.454 2.454 0 0 0 20.82 2a2.446 2.446 0 0 0-2.325 1.676l-2.892 8.671a7.67 7.67 0 0 0 .617 6.223l.621 1.087a4.953 4.953 0 0 0-1.202 3.115L3.226 29.939a2.456 2.456 0 0 0-.897 3.35 2.449 2.449 0 0 0 2.615 1.176l8.954-1.833a7.672 7.672 0 0 0 5.083-3.646l.698-1.198c.308.06.625.096.95.096.379 0 .745-.051 1.1-.131L22.223 46h-3.188l.334-12.364a1 1 0 0 0-.973-1.026 1.01 1.01 0 0 0-1.027.973L16.655 60H3a1 1 0 1 0 0 2h30a1 1 0 1 0 0-2zm-2.178-34.705 6.063 6.837a.451.451 0 0 1-.563.692l-11.816-6.822a4.947 4.947 0 0 0 1.072-2.617l1.034.005a5.663 5.663 0 0 1 4.21 1.905zm-13.569 2.684a5.67 5.67 0 0 1-3.756 2.694l-8.954 1.832a.453.453 0 0 1-.317-.834l11.81-6.818a5.02 5.02 0 0 0 1.78 2.159zm.376-5.094c0-1.654 1.346-3 3-3s3 1.346 3 3-1.346 3-3 3-3-1.346-3-3zM22.277 48l.108 4h-3.512l.108-4zm-3.458 6h3.62l.162 6h-3.944z" fill="#63c153" opacity="1" data-original="#000000" class=""></path></g></svg>